<svg width="20" height="25" viewBox="0 0 20 25" fill="none" xmlns="http://www.w3.org/2000/svg">
<g opacity="0.6">
<path fill-rule="evenodd" clip-rule="evenodd" d="M12.2395 4.74093V2.341L17.2093 7.31082H12.2395V4.74093ZM9.06161 13.9542L7.74869 15.2671C7.4812 15.5346 7.04799 15.5356 6.77953 15.2671C6.51204 14.9996 6.51204 14.5654 6.77953 14.2979L9.74711 11.3303L12.7147 14.2979C12.9822 14.5654 12.9822 14.9996 12.7147 15.2671C12.4472 15.5346 12.013 15.5346 11.7455 15.2671L10.4322 13.9538V18.37C10.4322 18.7482 10.1266 19.0553 9.74691 19.0553C9.36863 19.0553 9.06161 18.7482 9.06161 18.37V13.9542ZM19.5325 7.9084C19.5284 7.87825 19.5216 7.84946 19.5147 7.82068C19.4832 7.70692 19.4352 7.59727 19.3489 7.51092L19.3475 7.50955L12.0408 0.20285L12.0394 0.201479C11.9517 0.115131 11.842 0.0657891 11.7283 0.0356357C11.7009 0.0287827 11.6735 0.0233002 11.646 0.0191884C11.6145 0.0150766 11.5871 0 11.5542 0H0.685303C0.307016 0 0 0.307016 0 0.685303V23.5731C0 23.9514 0.307016 24.2584 0.685303 24.2584H18.8637C19.2433 24.2584 19.549 23.9514 19.549 23.5731V7.99612C19.549 7.9646 19.5366 7.93855 19.5325 7.9084Z" fill="white"/>
</g>
</svg>
